<svg xmlns="http://www.w3.org/2000/svg" viewBox="0 0 82.11906 32.6383"><defs><style>.a{fill:#e83636;}.a,.b{fill-rule:evenodd;}.b{fill:#fff;}</style></defs><title>Artboard 6</title><path class="a" d="M41.57077,23.60793,48.81894,9.03037,56.0666,23.60793Zm3.71184-2.30481h7.07215l-3.53582-7.15246-3.53633,7.15246Z"/><path class="b" d="M32.48224,16.31915l7.24816,7.24368H36.46888l-7.24616-7.24168.002-.002-.002-.002,7.24616-7.24168H39.7304l-7.24816,7.24368ZM29.22272,9.07547V23.56283H26.91649V9.07547Z"/><path class="b" d="M17.82845,9.07547a7.24368,7.24368,0,1,1-7.24816,7.24368,7.24885,7.24885,0,0,1,7.24816-7.24368Zm0,2.24567a4.998,4.998,0,1,1-5.0016,4.998,5.00176,5.00176,0,0,1,5.0016-4.998ZM20.585,15.18053v2.3048H15.099v-2.3048Z"/><path class="b" d="M71.53877,16.36425a7.24817,7.24817,0,1,1-7.24816-7.24317A7.24927,7.24927,0,0,1,71.53877,16.36425Zm-6.10883-4.8672V21.232a4.99841,4.99841,0,0,0,0-9.73491Zm-2.30624.00651a4.99842,4.99842,0,0,0,0,9.72189Z"/></svg>