<svg xmlns="http://www.w3.org/2000/svg" viewBox="0 0 82.11906 25.10638"><defs><style>.a{fill:#e83636;}.a,.b{fill-rule:evenodd;}.b{fill:#212121;}</style></defs><title>logo_b2</title><path class="a" d="M41.69842,21.66186,50.75633,3.44452l9.05729,18.21734ZM46.337,18.78158h8.838L50.75633,9.84326,46.337,18.78158Z"/><path class="b" d="M30.34063,12.55319l9.05791,9.05231H35.32267l-9.05541-9.0498.00251-.00251-.00251-.0025,9.05541-9.0498h4.07587l-9.05791,9.0523Zm-4.07337-9.0523V21.6055H23.3852V3.50089Z"/><path class="b" d="M12.028,3.50089a9.05231,9.05231,0,1,1-9.05791,9.0523A9.05877,9.05877,0,0,1,12.028,3.50089Zm0,2.80637a6.24593,6.24593,0,1,1-6.25042,6.24593A6.25063,6.25063,0,0,1,12.028,6.30726Zm3.44482,4.823v2.88027H8.61706V11.13027h6.85579Z"/><path class="b" d="M79.14894,12.60956A9.05792,9.05792,0,1,1,70.091,3.55788,9.05931,9.05931,0,0,1,79.14894,12.60956ZM71.51482,6.52709V18.69265a6.24642,6.24642,0,0,0,0-12.16556Zm-2.88206.00814a6.24644,6.24644,0,0,0,0,12.14928Z"/></svg>